<svg xmlns="http://www.w3.org/2000/svg" xmlns:xlink="http://www.w3.org/1999/xlink" width="200" zoomAndPan="magnify" viewBox="0 0 150 225" height="300" preserveAspectRatio="xMidYMid meet" version="1.0"><defs><clipPath id="id1"><path d="M 37.6875 76.539062 L 102 76.539062 L 102 135 L 37.6875 135 Z M 37.6875 76.539062 " clip-rule="nonzero"/></clipPath><clipPath id="id2"><path d="M 85 121 L 112.6875 121 L 112.6875 148.539062 L 85 148.539062 Z M 85 121 " clip-rule="nonzero"/></clipPath></defs><path fill="rgb(24.708557%, 27.839661%, 33.729553%)" d="M 80.878906 94.890625 L 99.035156 94.890625 L 80.878906 79.53125 Z M 80.878906 94.890625 " fill-opacity="1" fill-rule="nonzero"/><g clip-path="url(#id1)"><path fill="rgb(24.708557%, 27.839661%, 33.729553%)" d="M 82.933594 131.074219 L 41.519531 131.074219 L 41.519531 80.402344 L 74.761719 80.402344 L 74.761719 97.199219 C 74.761719 99.289062 76.460938 100.980469 78.558594 100.980469 L 97.574219 100.980469 L 97.574219 118.472656 C 98.058594 118.429688 98.542969 118.40625 99.035156 118.40625 C 99.839844 118.40625 100.632812 118.464844 101.40625 118.578125 L 101.40625 100.097656 C 101.40625 98.476562 100.089844 97.160156 98.460938 97.160156 L 80.308594 97.160156 C 79.363281 97.160156 78.597656 96.398438 78.597656 95.457031 L 78.597656 79.519531 C 78.597656 77.894531 77.277344 76.582031 75.648438 76.582031 L 39.3125 76.582031 C 38.414062 76.582031 37.683594 77.308594 37.683594 78.203125 L 37.683594 133.277344 C 37.683594 134.167969 38.414062 134.894531 39.3125 134.894531 L 82.480469 134.894531 C 82.480469 133.578125 82.640625 132.300781 82.933594 131.074219 Z M 82.933594 131.074219 " fill-opacity="1" fill-rule="nonzero"/></g><path fill="rgb(21.569824%, 45.878601%, 71.759033%)" d="M 71.503906 101.789062 C 71.503906 102.234375 71.417969 102.664062 71.25 103.078125 C 71.078125 103.488281 70.832031 103.851562 70.515625 104.167969 C 70.199219 104.484375 69.835938 104.726562 69.421875 104.898438 C 69.007812 105.066406 68.578125 105.152344 68.128906 105.152344 C 67.683594 105.152344 67.25 105.066406 66.835938 104.898438 C 66.425781 104.726562 66.058594 104.484375 65.742188 104.167969 C 65.425781 103.851562 65.183594 103.488281 65.011719 103.078125 C 64.839844 102.664062 64.753906 102.234375 64.753906 101.789062 C 64.753906 101.34375 64.839844 100.914062 65.011719 100.503906 C 65.183594 100.089844 65.425781 99.726562 65.742188 99.410156 C 66.058594 99.097656 66.425781 98.855469 66.835938 98.683594 C 67.25 98.511719 67.683594 98.425781 68.128906 98.425781 C 68.578125 98.425781 69.007812 98.511719 69.421875 98.683594 C 69.835938 98.855469 70.199219 99.097656 70.515625 99.410156 C 70.832031 99.726562 71.078125 100.089844 71.25 100.503906 C 71.417969 100.914062 71.503906 101.34375 71.503906 101.789062 Z M 71.503906 101.789062 " fill-opacity="1" fill-rule="nonzero"/><path fill="rgb(21.569824%, 45.878601%, 71.759033%)" d="M 88.191406 122.449219 L 82.921875 112.570312 C 82.648438 112.0625 81.996094 111.898438 81.515625 112.21875 L 74.601562 116.839844 C 74.058594 117.199219 73.324219 116.941406 73.128906 116.324219 L 70.917969 109.328125 C 70.75 108.78125 70.144531 108.503906 69.617188 108.71875 L 63.960938 111.050781 C 63.539062 111.222656 63.050781 111.082031 62.789062 110.707031 L 59.085938 105.410156 C 58.652344 104.789062 57.703125 104.878906 57.394531 105.570312 L 48.097656 126.332031 C 47.808594 126.972656 48.28125 127.695312 48.988281 127.695312 L 84.144531 127.695312 C 85.128906 125.683594 86.511719 123.902344 88.191406 122.449219 Z M 88.191406 122.449219 " fill-opacity="1" fill-rule="nonzero"/><g clip-path="url(#id2)"><path fill="rgb(21.569824%, 45.878601%, 71.759033%)" d="M 99.035156 121.292969 C 91.492188 121.292969 85.378906 127.382812 85.378906 134.894531 C 85.378906 142.40625 91.492188 148.496094 99.035156 148.496094 C 106.574219 148.496094 112.6875 142.40625 112.6875 134.894531 C 112.6875 127.382812 106.574219 121.292969 99.035156 121.292969 Z M 96.730469 127.457031 C 96.730469 126.113281 97.886719 125.039062 99.257812 125.167969 C 100.457031 125.285156 101.339844 126.351562 101.339844 127.550781 L 101.339844 135.695312 C 101.339844 136.960938 100.304688 137.988281 99.035156 137.988281 C 97.761719 137.988281 96.730469 136.960938 96.730469 135.695312 Z M 99.035156 144.632812 C 97.722656 144.632812 96.660156 143.574219 96.660156 142.265625 C 96.660156 140.960938 97.722656 139.902344 99.035156 139.902344 C 100.34375 139.902344 101.40625 140.960938 101.40625 142.265625 C 101.40625 143.574219 100.34375 144.632812 99.035156 144.632812 Z M 99.035156 144.632812 " fill-opacity="1" fill-rule="nonzero"/></g></svg>