<?xml version="1.0" encoding="iso-8859-1"?>
<!-- Generator: Adobe Illustrator 19.0.0, SVG Export Plug-In . SVG Version: 6.00 Build 0)  -->
<svg version="1.1" id="Layer_1" xmlns="http://www.w3.org/2000/svg" xmlns:xlink="http://www.w3.org/1999/xlink" x="0px" y="0px"
	 viewBox="0 0 248.94 248.94" style="enable-background:new 0 0 248.94 248.94;" xml:space="preserve">
<g>
	<g>
		<g id="XMLID_21_">
			<g>
				<path style="fill:#F2CE75;" d="M128.745,15.559c11.414,0,22.527,1.712,33.22,5.106c-34.452,22.858-55.988,62.025-55.988,103.806
					s21.536,80.948,55.988,103.806c-10.663,3.394-21.806,5.106-33.22,5.106c-60.253,0-109.242-48.839-109.242-108.912
					C19.503,64.428,68.492,15.559,128.745,15.559z"/>
				<path style="fill:#FEDE94;" d="M47.082,124.471c0,55.375,41.636,101.168,95.338,107.999c6.65-0.82,13.192-2.172,19.548-4.193
					c-34.452-22.858-55.988-62.025-55.988-103.806s21.536-80.948,55.988-103.806c-6.371-2.021-12.904-3.373-19.548-4.193
					C88.716,23.308,47.082,69.126,47.082,124.471z"/>
				<path style="fill:#2D213F;" d="M244.686,62.355c1.021,3.184-0.12,6.698-2.853,8.681l-4.596,3.334l1.742,5.407
					c1.051,3.184-0.09,6.698-2.823,8.681c-1.352,0.991-2.974,1.502-4.596,1.502c-1.592,0-3.214-0.511-4.566-1.502l-4.596-3.334
					l-4.626,3.334c-2.733,1.982-6.428,1.982-9.161,0s-3.875-5.497-2.853-8.681l1.772-5.407l-4.596-3.334
					c-2.733-1.982-3.875-5.497-2.853-8.681c1.051-3.214,4.055-5.377,7.449-5.377h5.677l1.742-5.407
					c1.051-3.214,4.055-5.377,7.449-5.377c3.364,0,6.368,2.163,7.419,5.377l1.742,5.407h5.707
					C240.631,56.979,243.634,59.142,244.686,62.355z"/>
				<path style="fill:#2D213F;" d="M217.743,158.442c1.051,3.184-0.09,6.698-2.823,8.681l-2.433,1.772l0.931,2.823
					c1.021,3.214-0.12,6.728-2.853,8.711c-2.733,1.982-6.428,1.982-9.161,0l-2.433-1.772l-2.433,1.772
					c-1.352,0.991-2.974,1.472-4.566,1.472c-1.622,0-3.244-0.481-4.596-1.472c-2.733-1.982-3.875-5.497-2.823-8.711l0.901-2.823
					l-2.403-1.772c-2.763-1.982-3.905-5.497-2.853-8.681c1.051-3.214,4.055-5.377,7.419-5.377h3.004l0.931-2.853
					c1.051-3.214,4.055-5.377,7.419-5.377c3.394,0,6.398,2.163,7.419,5.377l0.931,2.853h3.004
					C213.688,153.065,216.692,155.228,217.743,158.442z"/>
				<path style="fill:#2D213F;" d="M183.201,12.435c2.673,1.322,4.385,4.025,4.385,6.998c0,3.004-1.712,5.707-4.385,6.998
					c-37.996,18.412-61.605,55.958-61.605,98.039s23.609,79.656,61.605,98.039c2.673,1.292,4.385,4.025,4.385,6.998
					c0,2.974-1.712,5.707-4.385,6.998c-17.061,8.26-35.383,12.435-54.456,12.435c-68.843,0-124.861-55.838-124.861-124.471
					S59.902,0,128.745,0C147.818,0,166.141,4.175,183.201,12.435z M161.965,20.665c-10.693-3.394-21.806-5.106-33.22-5.106
					c-60.253,0-109.242,48.869-109.242,108.912c0,60.073,48.989,108.912,109.242,108.912c11.414,0,22.557-1.712,33.22-5.106
					c-34.452-22.858-55.988-62.025-55.988-103.806S127.514,43.523,161.965,20.665z"/>
			</g>
		</g>
	</g>
</g>
<g>
</g>
<g>
</g>
<g>
</g>
<g>
</g>
<g>
</g>
<g>
</g>
<g>
</g>
<g>
</g>
<g>
</g>
<g>
</g>
<g>
</g>
<g>
</g>
<g>
</g>
<g>
</g>
<g>
</g>
</svg>
